<svg width="31" height="26" viewBox="0 0 31 26" fill="none" xmlns="http://www.w3.org/2000/svg">
<g id="Bot&#195;&#163;o Menu lateral">
<path class="iconeSide" id="Lista" fill-rule="evenodd" clip-rule="evenodd" d="M0.444336 24.1111C0.444336 23.7428 0.590665 23.3895 0.851132 23.129C1.1116 22.8685 1.46487 22.7222 1.83322 22.7222H29.611C29.9794 22.7222 30.3326 22.8685 30.5931 23.129C30.8536 23.3895 30.9999 23.7428 30.9999 24.1111C30.9999 24.4795 30.8536 24.8327 30.5931 25.0932C30.3326 25.3537 29.9794 25.5 29.611 25.5H1.83322C1.46487 25.5 1.1116 25.3537 0.851132 25.0932C0.590665 24.8327 0.444336 24.4795 0.444336 24.1111ZM0.444336 13C0.444336 12.6316 0.590665 12.2784 0.851132 12.0179C1.1116 11.7574 1.46487 11.6111 1.83322 11.6111H29.611C29.9794 11.6111 30.3326 11.7574 30.5931 12.0179C30.8536 12.2784 30.9999 12.6316 30.9999 13C30.9999 13.3684 30.8536 13.7216 30.5931 13.9821C30.3326 14.2426 29.9794 14.3889 29.611 14.3889H1.83322C1.46487 14.3889 1.1116 14.2426 0.851132 13.9821C0.590665 13.7216 0.444336 13.3684 0.444336 13ZM0.444336 1.88889C0.444336 1.52053 0.590665 1.16726 0.851132 0.906796C1.1116 0.646329 1.46487 0.5 1.83322 0.5H29.611C29.9794 0.5 30.3326 0.646329 30.5931 0.906796C30.8536 1.16726 30.9999 1.52053 30.9999 1.88889C30.9999 2.25725 30.8536 2.61051 30.5931 2.87098C30.3326 3.13145 29.9794 3.27778 29.611 3.27778H1.83322C1.46487 3.27778 1.1116 3.13145 0.851132 2.87098C0.590665 2.61051 0.444336 2.25725 0.444336 1.88889Z" fill="var(--cor1)"/>
</g>
</svg>
