<svg width="100%" height="100%" xmlns="http://www.w3.org/2000/svg" viewBox="0 0 1362 1028"><path fill="var(--corSVG)" d="M513.09 675.34c-20.33 35.34-36.95 64.04-49.21 85.09-2.17 3.73.39 6.95 4.42 6.95q179.94.06 299.51-.36 15.92-.05 33.49-1.99 6.42-.71 14.47-2.85 14.36-3.83 30.37-11.34c40.75-19.13 76.2-50.43 98.81-89.62q90.83-157.46 199.17-345.32c1.47-2.55 3.5-2.94 5.49-.4q5.4 6.91 96.35 127.87a2.5 2.49 41.8 0 1 .16 2.76q-20.74 35.74-204.26 352.31-27.05 46.66-71.35 79.05c-31.04 22.71-67.34 38.31-105.52 41.53q-6.87.58-19.98.6-74.77.13-283.35.38-5.25.01-7.59-1.03-3.81-1.69-5.98-5.45-39.42-68.23-84.31-136.55-2.13-3.24-4.71-4.69-127.7-71.81-230.17-132.1-19.41-11.41-34.37-21.21c-6.41-4.2-12-8.47-17.39-14.19-30.04-31.86-40.16-82.11-22.52-122.41q3.14-7.17 10.68-21.04 4.21-7.75 21.16-37.08 113.33-196.05 177.61-307.9c5.19-9.02 13.35-10.23 22.05-5.21Q618.23 245.12 718.8 303.2q3.98 2.3 4.01 6.39.02 2.39-2.28 6.38-191.92 332.4-207.44 359.37"/></svg>