<svg width="100%" height="100%" xmlns="http://www.w3.org/2000/svg" viewBox="0 0 4330 725"><g fill="var(--corSVG)"><path d="M386.02 568.53c-2.05 3.55-.59 6.32 3.73 6.32q223.03-.15 247.03-.3 14.28-.09 28.06-1.52 8.22-.85 14.89-2.88 28.63-8.72 53.09-26.12 33.01-23.47 52.76-57.62 155.9-269.53 164.75-285.53.93-1.68 2.09-2.75a2.01 2-39.8 0 1 2.96.27l80.47 107.01a2.23 2.22 41.8 0 1 .14 2.45q-16.24 27.98-169.47 292.23-28.75 49.58-77.97 78.2c-24.42 14.21-51.88 22.85-80.25 23.04q-34.85.23-242.29.39-7.17.01-10.17-5.18-32.05-55.41-69.27-112.31c-2.08-3.18-3.63-4.66-7.1-6.61q-89.36-50.07-188.09-107.89-17.7-10.37-32.59-20.27c-10.66-7.09-19.53-18.13-25.49-29.25-13.82-25.76-16.26-56.94-4.02-83.89q4.5-9.91 13.25-25.06 64.5-111.7 160.43-278.02 4.22-7.31 11.25-6.48 3.27.39 10.59 4.61 135.33 78.14 270.65 156.29c5 2.89 7.26 5.53 4.05 11.09zM1260.2 261.44q-.72.41-.73 1.24c-.87 105.88-.34 185.54-.14 317.55q.03 24.37-8.74 48.05c-16.48 44.46-54.67 67.55-101.57 67.26q-25.06-.16-55.44-5.62c-4.59-.82-3.84-3.26-3.85-7.26q-.07-26.87.02-58.36a1.98 1.98 0 0 1 2.54-1.89q5.15 1.52 9.97 2.58c27.53 6.06 53.52-3.32 56.52-34.65 1.35-14.17 1.79-28.12 1.75-43.07q-.4-166.19-.05-282.7.01-3.66-3.89-3.65-36.91.06-50.2.01-2.95-.01-2.95-2.97v-60.24q0-1.09 1.08-1.09h203.79a2.46 2.46 0 0 1 2.46 2.45q.07 31.15.02 55.93 0 3.04-.6 4.58-.18.47-.62.7-1.31.67-3.56.67-30.44.06-43.18-.05-1.68-.02-2.63.53M2506.1 390.42a1.58 1.58 0 0 0 .25 2.67c28.84 14.48 49.45 37.55 55.93 69.89 6.17 30.76.99 63.05-16.27 89.08-16.28 24.56-42.92 43.07-71.96 49.76-30.4 7-63.22 8.53-93.74 8.65q-93.38.37-175.3.11-4.12-.01-10.23-1.35c-2.12-.47-3.05-1.95-3.08-3.98q-.14-12.96-.06-70.25c.01-6.12 3.1-6.58 8.49-6.59q18.14-.04 36.05-.02 4.44 0 4.44-4.44V283.09a2.2 2.19.1 0 0-2.19-2.19q-7.49-.03-39.83-.02c-3.81 0-6.91-1.2-6.92-5.38q-.07-34.63 0-69.25c.01-6.4 3.13-7.01 8.87-7.08q118.31-1.29 220.21.3 25.37.39 48.32 5.75c11.78 2.76 23.96 7.76 34.32 15.52 37.29 27.96 55.14 73.3 42.15 118.83q-8.01 28.06-32.66 45.85-4.14 2.98-6.79 5m-147.08-107.85.24 70.9a1.05 1.05 0 0 0 1.06 1.04l34.97-.12a36.32 30.54-.2 0 0 36.21-30.67l-.04-11.92a36.32 30.54-.2 0 0-36.43-30.41l-34.97.12a1.05 1.05 0 0 0-1.04 1.06m.05 157.93.14 85.64a1.69 1.69 0 0 0 1.7 1.69l39.52-.07a42.49 37.13-.1 0 0 42.42-37.2l-.02-14.76a42.49 37.13-.1 0 0-42.56-37.06l-39.52.07a1.69 1.69 0 0 0-1.68 1.69M3479.17 388.93q1.1-2.29-1.43-2.28l-28.52.03q-4.98.02-6.79-.81-3.73-1.69-3.8-6.66-.17-11.81-.03-48.36.02-6.15.99-8.13c2.11-4.33 6.48-3.76 11.82-3.77q81.29-.03 162.59 0c6.21 0 7.02 4.69 7.03 10.05q.03 26.38.02 52.76c0 8.37-6.13 8.13-13.04 8.19q-6.98.06-13.98.09c-6.39.04-10.59 3.84-16.32 8.74q-28.08 24-56.02 48.16-2.11 1.83-4.19 3.8a2.47 2.47 0 0 0-.2 3.37q25.82 31.02 60.12 72.03 4.38 5.24 11.46 5.35 5.17.08 26.18.05c5.77 0 9.52.56 9.53 7.21q.06 27.27.03 66.27-.01 5.37-5.26 5.42-46.53.45-84.36-.15-6.72-.11-10.92-5.11-83.93-99.92-102.85-123.22-1.25-1.53-2.06-1.58-1.95-.11-1.95 1.84v48.55q0 4.02 4.03 4.02 12.07-.01 18.29.01c4.76.01 8.35-.57 10.21 3.5q.68 1.49.7 4.65.17 32.43 0 60.55-.03 4.34-3.03 6.11-1.7 1-6 1-78.8 0-157.61-.01c-7.41 0-13.99.36-13.99-8.59q.02-29.46.01-58.9 0-5.71 1.17-7.79 2.21-3.94 7.99-3.92 22.2.07 32.95 0a2.05 2.05 0 0 0 1.8-1.1q.69-1.33.67-3.28-.25-20.02-.14-242.12c0-4.02.59-7.04-4.26-7q-8.18.07-30.43 0-4.24-.01-6.04-1c-3-1.66-3.71-4.31-3.71-7.82q0-30.42-.01-60.84 0-4.44.95-6.22 1.75-3.27 6.24-3.27 40.28-.03 134.25-.04 5.91 0 5.92 5.54.15 42.04-.02 229.57 0 2.27.47 3.58a1.72 1.72 0 0 0 2.72.73l58.49-48.78a1.4 1.29-9.1 0 0 .33-.42M3759.93 198.71q92.32-.01 105.96.1 2.39.02 8.49.6c4.63.44 5.22 3.09 5.22 7.35q.03 33.34-.01 66.68c0 3.76-.9 7.46-5.2 7.46q-18.74.01-50.96.03-4.1 0-4.09 4.1.12 72.74.12 119.65.01 46.9-.11 119.64 0 4.1 4.1 4.1 32.22.01 50.96.02c4.3 0 5.2 3.7 5.2 7.46q.04 33.34.02 66.68c0 4.26-.59 6.91-5.22 7.35q-6.1.58-8.49.6-13.64.12-105.96.12-92.32.01-105.96-.1-2.39-.02-8.49-.6c-4.63-.44-5.22-3.09-5.22-7.35q-.03-33.34.01-66.68c0-3.76.9-7.46 5.2-7.46q18.74-.01 50.96-.03 4.1 0 4.09-4.1-.12-72.74-.12-119.64-.01-46.91.1-119.65.01-4.1-4.09-4.1-32.22-.01-50.96-.02c-4.3 0-5.2-3.7-5.2-7.46q-.05-33.34-.02-66.68c0-4.26.59-6.91 5.22-7.35q6.1-.58 8.49-.6 13.64-.12 105.96-.12M2016.93 399.38a1.37 1.37 0 0 0-1.38-1.37q-13.12.09-26.79-.01c-5.89-.05-6.57-4.17-6.58-9.27q-.02-31.37 0-62.73c0-5.65 3.75-6.85 8.81-6.87q6.29-.02 23.57-.02a2.47 2.47 0 0 0 2.47-2.47q0-8.18.09-31.65c.02-6.03 3.01-7.82 8.13-11.52l80.56-58.16q4.22-3.05 6.22-3.43 4.27-.83 7.2 3.71 1.19 1.84 1.27 7.38.11 6.45.17 91.28 0 1.64.16 2.88a2.21 2.21 0 0 0 2.19 1.93q23.85-.02 40.36.01c5.12.01 7.95 1.69 7.96 6.99q.07 34.28 0 64.98c-.01 4.41-1.06 7-5.84 7q-31.74-.01-39.14.04c-3.38.03-5.82-.29-5.81 4.16q.13 58.83.03 117.6-.02 7.12 7.07 9.51 2.2.74 8.1.16 13.11-1.31 25.22-4.45 4.18-1.09 6.29-.36 4.02 1.38 4.03 7.05.09 48.67 0 61.25-.04 5.2-5.05 7.24c-43.94 17.99-125.73 29.79-144.41-32.21q-4.64-15.42-4.67-31.03-.13-79.48-.23-137.62M2763.75 313.29c23.82 1.35 46.28 6.98 67.26 17.53 40.21 20.19 66.97 58.35 74.56 102.75q3.35 19.58 2.19 40.01t-6.7 39.51c-12.57 43.25-43.48 78.14-85.72 93.65-22.04 8.1-44.99 11.15-68.81 9.8s-46.28-6.98-67.26-17.52c-40.21-20.2-66.97-58.36-74.56-102.76q-3.35-19.58-2.19-40.01t6.7-39.5c12.57-43.26 43.48-78.14 85.72-93.66 22.04-8.1 44.99-11.15 68.81-9.8m-55.59 151.29c.03 30.1 8.58 68.63 46.9 68.59s46.78-38.59 46.75-68.69-8.58-68.63-46.89-68.59c-38.32.04-46.79 38.59-46.76 68.69M3242.71 473.6q-1.16 20.42-6.7 39.49c-12.56 43.25-43.47 78.13-85.7 93.65-22.03 8.09-44.98 11.15-68.8 9.79-23.82-1.35-46.27-6.98-67.25-17.52-40.21-20.19-66.96-58.35-74.55-102.74q-3.35-19.58-2.19-40.01 1.16-20.42 6.7-39.5c12.57-43.24 43.47-78.12 85.7-93.64 22.04-8.1 44.99-11.15 68.81-9.79 23.81 1.35 46.27 6.98 67.25 17.52 40.2 20.19 66.96 58.35 74.55 102.74q3.34 19.58 2.18 40.01m-105.92-9.12c-.03-30.09-8.59-68.6-46.89-68.55s-46.75 38.58-46.71 68.67c.03 30.09 8.59 68.6 46.89 68.55s46.75-38.58 46.71-68.67M1789.12 606.82a3.39 3.25 39.2 0 0-2.46.2c-3.29 1.66-6.31 3.43-10.41 3.47q-40.25.33-62.24-.25-7.13-.18-7.13-7.49-.03-31.71-.08-92.75c0-6.99.93-9.85 8.54-9.86q57.56-.03 63.91.02c5.71.04 6.98 3.87 7.72 9.13 1.8 12.81 10.68 22 22.45 27.1q22.7 9.83 47.31 4.28c8.73-1.96 19.45-7.21 20.32-16.93q.48-5.4-4.03-8.52c-5.76-3.98-12.48-5.71-19.68-7.08-30.41-5.76-60.78-10.87-89.47-21.44q-18.79-6.92-34.35-18.17-25.03-18.08-31.28-47.26c-10.38-48.48 22.81-88.46 67.93-101.11q17.05-4.77 38.2-4.94 31.46-.24 58.45 8.6 1.7.56 4.76-.78 3.78-1.64 6.8-2.91c2.74-1.16 6.83-.92 10.13-.96q26.09-.34 51.97-.12 4.93.04 6.76.95 3.61 1.8 3.62 6.75.11 39.37.01 78.75-.02 5.52-4.71 8.17-1.43.81-7.65.84-33.18.16-55.72.15c-8.15 0-9.8-5.26-13.12-11.32q-2.14-3.89-8.15-8.35-5.76-4.27-16.16-6.47-14.64-3.09-30.52-2.57-6.9.23-12.82 1.57c-5.43 1.22-14.62 5.06-12.68 12.39q.95 3.58 4.77 5.27c5.47 2.42 10.41 3.82 16.88 5.04q33.87 6.36 66.17 12.97 15.06 3.09 30.13 8.14 21.31 7.14 36.79 22.59c21.99 21.95 27.6 51.07 23.34 81.08-5.95 42.02-39.87 69.88-79.72 78.41q-44.14 9.46-87.16-4.23-7.1-2.25-7.42-2.36M4043.66 335.88q.82 1.65 2.27.78c28.37-17.13 58.05-24.63 91.34-20.04 30.42 4.19 50.94 23.34 61.4 51.37 7.47 20 9.49 41.61 9.49 63.05q.01 159.87.25 254.72c.03 8.71-7.13 11.59-13.54 6.42q-24.95-20.13-33.73-27.19c-3.17-2.55-6.15-1.28-9.15 1.1q-13.49 10.69-31.48 24.42c-2.74 2.09-6.9 4.78-10.25 4.06-4.65-1.01-5.37-4.28-5.38-8.89q-.44-192.29-.18-253.17.03-7.3-1.54-15.06c-1.54-7.59-6.81-13.24-15.13-13.1q-23.97.41-43.42 14.02-1.1.77-1.11 2.88-.16 20.93-.08 102.62c0 2.81-.44 7.3 3.61 7.52q.16.01 33.98.06c3.73 0 5.1 3.1 5.13 6.56q.09 14.55-.01 67.56-.01 4.77-4.62 4.82-26.84.28-178 .28c-4.63 0-5.34-2.94-5.35-7.02q-.02-33.33 0-66.65c.01-4.82 2.67-5.32 6.91-5.32q10.56-.01 29.96-.02 4.62 0 4.62-4.62V401.35q0-3.31-3.31-3.31-18.89.01-31.33 0-4.63-.01-6.14-3.28-.71-1.53-.72-6.11-.07-30.73 0-61.44.01-3.86.67-5.33 1.35-3.02 5.18-3.02 64.91-.04 129.83-.01c5.51.01 9.5.91 9.54 7.16q.02 3.02.07 8.94a2.28 2.25-58.7 0 0 .22.93M1523.63 594.46q-3.78 2.06-11.05 5.77-28.2 14.38-62.26 14.3c-39.76-.1-75.7-21.57-85.88-61.31q-4.14-16.19-4.08-34.63.25-82.7.18-118.05a2.5 2.49 89.9 0 0-2.49-2.49q-13.67.01-32.27-.02-6.9-.01-6.89-7.02.03-41.8.08-64.74c.01-5.96 3.55-7.21 8.95-7.21q65.17-.03 130.32-.01c6.22.01 5.17 7.72 5.18 11.53q.25 85.67.08 174.94-.01 4.72 1.69 10.41c2.86 9.54 10.06 11.44 19.07 10.86q22.43-1.45 39.89-15.64 1.32-1.08 1.34-3.37.08-8.66.09-105.53 0-1.52-.15-2.55a1.96 1.95 85.9 0 0-1.93-1.68q-7.63 0-34 .13-6.4.03-6.4-6.41-.03-44.82.01-66.98.01-5.81 5.39-5.77 8.1.06 131.08.07 4.51 0 6.44 1.06 3.42 1.89 3.42 6.41v200.93q0 3.97 3.98 3.96 16.08-.02 31.84.02c8.88.01 8.31 5.18 8.31 12.54q.05 41.66-.03 61.78-.01 4.8-4.78 4.8-73.2.03-135.76.01c-9.32-.01-6.91-9.19-7.28-14.96a1.42 1.42 0 0 0-2.09-1.15"/></g></svg>