<svg width="40" height="40" viewBox="0 0 40 40" fill="none" xmlns="http://www.w3.org/2000/svg">
<rect width="40" height="40" rx="5" fill="#0077CC"/>
<path d="M7.9 27L11.06 13H13.72L16.76 27H15.12L14.14 22.88H10.5L9.6 27H7.9ZM10.8 21.52H13.84L12.4 14.32H12.26L10.8 21.52ZM20.108 27V14.32H18.368V13H21.868V27H20.108ZM27.6064 27.14C26.6197 27.14 25.8131 26.9267 25.1864 26.5C24.5731 26.0733 24.2664 25.46 24.2664 24.66V15.14C24.2664 14.3533 24.5664 13.78 25.1664 13.42C25.7797 13.0467 26.5931 12.86 27.6064 12.86C28.6197 12.86 29.4264 13.0467 30.0264 13.42C30.6397 13.78 30.9464 14.3533 30.9464 15.14V24.66C30.9464 25.46 30.6331 26.0733 30.0064 26.5C29.3931 26.9267 28.5931 27.14 27.6064 27.14ZM27.5864 25.78C28.6531 25.78 29.1864 25.3867 29.1864 24.6V15.48C29.1864 14.6667 28.6531 14.26 27.5864 14.26C26.5464 14.26 26.0264 14.6667 26.0264 15.48V24.6C26.0264 25.3867 26.5464 25.78 27.5864 25.78Z" fill="white"/>
</svg>
