<svg width="40" height="40" viewBox="0 0 40 40" fill="none" xmlns="http://www.w3.org/2000/svg">
<rect width="40" height="40" rx="5" fill="#FFCC00"/>
<path d="M7.9 27L11.06 13H13.72L16.76 27H15.12L14.14 22.88H10.5L9.6 27H7.9ZM10.8 21.52H13.84L12.4 14.32H12.26L10.8 21.52ZM20.108 27V14.32H18.368V13H21.868V27H20.108ZM24.2664 25.7C25.6397 23.06 26.6197 21.14 27.2064 19.94C27.7931 18.7267 28.1664 17.86 28.3264 17.34C28.4864 16.8067 28.5664 16.2867 28.5664 15.78C28.5664 14.8467 27.9864 14.38 26.8264 14.38H24.8864V13H27.7264C28.6997 13 29.3864 13.2867 29.7864 13.86C30.1997 14.42 30.4064 15.0933 30.4064 15.88C30.4064 16.6133 30.2397 17.3733 29.9064 18.16C29.5731 18.9467 28.9931 20.12 28.1664 21.68C27.1664 23.5733 26.4797 24.9067 26.1064 25.68H30.4064V27H24.2664V25.7Z" fill="white"/>
</svg>
