<svg width="40" height="40" viewBox="0 0 40 40" fill="none" xmlns="http://www.w3.org/2000/svg">
<rect width="40" height="40" rx="5" fill="#FF0000"/>
<path d="M7.4 27L10.56 13H13.22L16.26 27H14.62L13.64 22.88H10L9.1 27H7.4ZM10.3 21.52H13.34L11.9 14.32H11.76L10.3 21.52ZM19.608 27V14.32H17.868V13H21.368V27H19.608ZM27.2864 27.14C26.3264 27.14 25.4997 26.9133 24.8064 26.46C24.1264 25.9933 23.7864 25.34 23.7864 24.5V16.24C23.7864 15.2133 24.0797 14.42 24.6664 13.86C25.2531 13.2867 26.0731 13 27.1264 13H29.8464V14.32H27.3664C26.7797 14.32 26.3264 14.4933 26.0064 14.84C25.6864 15.1867 25.5264 15.6667 25.5264 16.28V18.8H28.2264C29.1197 18.8 29.7731 19 30.1864 19.4C30.6131 19.8 30.8264 20.44 30.8264 21.32V24.52C30.8264 25.36 30.4797 26.0067 29.7864 26.46C29.0931 26.9133 28.2597 27.14 27.2864 27.14ZM27.2664 25.82C27.7597 25.82 28.1864 25.7267 28.5464 25.54C28.9064 25.3533 29.0864 25.04 29.0864 24.6V21.44C29.0864 20.9333 28.9997 20.5867 28.8264 20.4C28.6531 20.2133 28.2931 20.12 27.7464 20.12H25.5264V24.58C25.5264 25.02 25.6931 25.34 26.0264 25.54C26.3731 25.7267 26.7864 25.82 27.2664 25.82Z" fill="white"/>
</svg>
