<svg width="40" height="40" viewBox="0 0 40 40" fill="none" xmlns="http://www.w3.org/2000/svg">
<rect width="40" height="40" rx="5" fill="black"/>
<path d="M7.9 27L11.06 13H13.72L16.76 27H15.12L14.14 22.88H10.5L9.6 27H7.9ZM10.8 21.52H13.84L12.4 14.32H12.26L10.8 21.52ZM20.108 27V14.32H18.368V13H21.868V27H20.108ZM27.7864 27.12C26.5997 27.12 25.7197 26.9067 25.1464 26.48C24.5731 26.0533 24.2864 25.4467 24.2864 24.66V21.88C24.2864 21.4933 24.3931 21.1333 24.6064 20.8C24.8331 20.4533 25.1397 20.16 25.5264 19.92C25.2197 19.7067 24.9731 19.44 24.7864 19.12C24.6131 18.8 24.5264 18.4467 24.5264 18.06V15.48C24.5264 14.68 24.7864 14.0467 25.3064 13.58C25.8264 13.1 26.6531 12.86 27.7864 12.86C28.8531 12.86 29.6597 13.1 30.2064 13.58C30.7664 14.06 31.0464 14.6933 31.0464 15.48V18.06C31.0464 18.82 30.6997 19.44 30.0064 19.92C30.3797 20.1733 30.6731 20.4667 30.8864 20.8C31.0997 21.1333 31.2064 21.4933 31.2064 21.88V24.66C31.2064 25.42 30.9131 26.02 30.3264 26.46C29.7397 26.9 28.8931 27.12 27.7864 27.12ZM27.7664 19.16C28.7797 19.16 29.2864 18.72 29.2864 17.84V15.7C29.2864 15.3533 29.2531 15.08 29.1864 14.88C29.1331 14.6667 28.9997 14.5 28.7864 14.38C28.5864 14.2467 28.2664 14.18 27.8264 14.18C27.1997 14.18 26.7864 14.3067 26.5864 14.56C26.3864 14.8133 26.2864 15.1933 26.2864 15.7L26.3064 17.84C26.3064 18.3067 26.4131 18.6467 26.6264 18.86C26.8397 19.06 27.2197 19.16 27.7664 19.16ZM27.7464 25.8C28.2931 25.8 28.7131 25.6867 29.0064 25.46C29.2997 25.2333 29.4464 24.9 29.4464 24.46V22.12C29.4464 21.6533 29.3064 21.28 29.0264 21C28.7464 20.72 28.3197 20.58 27.7464 20.58C27.1997 20.58 26.7797 20.7267 26.4864 21.02C26.1931 21.3 26.0464 21.6667 26.0464 22.12V24.46C26.0464 25.3533 26.6131 25.8 27.7464 25.8Z" fill="white"/>
</svg>
