<svg width="30" height="26" viewBox="0 0 30 26" fill="none" xmlns="http://www.w3.org/2000/svg">
<path d="M1.875 4.18615C3.53437 3.48025 5.91375 2.71904 8.2275 2.48247C10.7213 2.22682 12.8363 2.60266 14.0625 3.91714V22.5107C12.3094 21.4996 10.0875 21.3603 8.03813 21.5702C5.82563 21.7991 3.59437 22.4497 1.875 23.1174V4.18615ZM15.9375 3.91714C17.1637 2.60266 19.2788 2.22682 21.7725 2.48247C24.0863 2.71904 26.4656 3.48025 28.125 4.18615V23.1174C26.4037 22.4497 24.1744 21.7972 21.9619 21.5721C19.9106 21.3603 17.6906 21.4977 15.9375 22.5107V3.91714ZM15 2.19248C13.1531 0.576558 10.4756 0.336174 8.03813 0.58419C5.19938 0.876086 2.33438 1.86624 0.549375 2.69233C0.385592 2.76812 0.246704 2.89027 0.149289 3.04419C0.051875 3.19811 4.98214e-05 3.37731 0 3.56038L0 24.5464C4.34287e-05 24.706 0.0394446 24.863 0.114595 25.0031C0.189744 25.1432 0.298241 25.2619 0.430145 25.3482C0.56205 25.4346 0.713146 25.4859 0.869594 25.4975C1.02604 25.5091 1.18284 25.4805 1.32563 25.4144C2.97938 24.6513 5.64375 23.7336 8.22563 23.4684C10.8675 23.1975 13.0819 23.6344 14.2688 25.1416C14.3566 25.253 14.4679 25.3429 14.5945 25.4047C14.721 25.4665 14.8596 25.4986 15 25.4986C15.1404 25.4986 15.279 25.4665 15.4055 25.4047C15.5321 25.3429 15.6434 25.253 15.7313 25.1416C16.9181 23.6344 19.1325 23.1975 21.7725 23.4684C24.3563 23.7336 27.0225 24.6513 28.6744 25.4144C28.8172 25.4805 28.974 25.5091 29.1304 25.4975C29.2869 25.4859 29.438 25.4346 29.5699 25.3482C29.7018 25.2619 29.8103 25.1432 29.8854 25.0031C29.9606 24.863 30 24.706 30 24.5464V3.56038C30 3.37731 29.9481 3.19811 29.8507 3.04419C29.7533 2.89027 29.6144 2.76812 29.4506 2.69233C27.6656 1.86624 24.8006 0.876086 21.9619 0.58419C19.5244 0.334266 16.8469 0.576558 15 2.19248Z" fill="var(--corSVG)"/>
</svg>
