<svg width="31" height="26" viewBox="0 0 31 26" fill="none" xmlns="http://www.w3.org/2000/svg">
<path class="iconeLivro" id="Livro" d="M2.31934 4.18615C3.97871 3.48025 6.35809 2.71904 8.67184 2.48247C11.1656 2.22682 13.2806 2.60266 14.5068 3.91714V22.5107C12.7537 21.4996 10.5318 21.3603 8.48246 21.5702C6.26996 21.7991 4.03871 22.4497 2.31934 23.1174V4.18615ZM16.3818 3.91714C17.6081 2.60266 19.7231 2.22682 22.2168 2.48247C24.5306 2.71904 26.91 3.48025 28.5693 4.18615V23.1174C26.8481 22.4497 24.6187 21.7972 22.4062 21.5721C20.355 21.3603 18.135 21.4977 16.3818 22.5107V3.91714ZM15.4443 2.19248C13.5975 0.576558 10.92 0.336174 8.48246 0.58419C5.64371 0.876086 2.77871 1.86624 0.993711 2.69233C0.829928 2.76812 0.69104 2.89027 0.593625 3.04419C0.496211 3.19811 0.444386 3.37731 0.444336 3.56038V24.5464C0.444379 24.706 0.483781 24.863 0.55893 25.0031C0.63408 25.1432 0.742577 25.2619 0.874481 25.3482C1.00639 25.4346 1.15748 25.4859 1.31393 25.4975C1.47038 25.5091 1.62718 25.4805 1.76996 25.4144C3.42371 24.6513 6.08809 23.7336 8.66996 23.4684C11.3118 23.1975 13.5262 23.6344 14.7131 25.1416C14.8009 25.253 14.9122 25.3429 15.0388 25.4047C15.1654 25.4665 15.304 25.4986 15.4443 25.4986C15.5847 25.4986 15.7233 25.4665 15.8499 25.4047C15.9764 25.3429 16.0877 25.253 16.1756 25.1416C17.3625 23.6344 19.5768 23.1975 22.2168 23.4684C24.8006 23.7336 27.4668 24.6513 29.1187 25.4144C29.2615 25.4805 29.4183 25.5091 29.5747 25.4975C29.7312 25.4859 29.8823 25.4346 30.0142 25.3482C30.1461 25.2619 30.2546 25.1432 30.3297 25.0031C30.4049 24.863 30.4443 24.706 30.4443 24.5464V3.56038C30.4443 3.37731 30.3925 3.19811 30.295 3.04419C30.1976 2.89027 30.0587 2.76812 29.895 2.69233C28.11 1.86624 25.245 0.876086 22.4062 0.58419C19.9687 0.334266 17.2912 0.576558 15.4443 2.19248Z" fill="#000000"/>
</svg>
