<svg xmlns="http://www.w3.org/2000/svg" xml:space="preserve" width="100%" height="100%" style="shape-rendering:geometricPrecision;text-rendering:geometricPrecision;image-rendering:optimizeQuality;fill-rule:evenodd;clip-rule:evenodd" viewBox="0 0 10159.7 2031.8"><defs><style>.str1{stroke:var(--cor);stroke-width:63.49;stroke-linecap:round;stroke-linejoin:round;stroke-miterlimit:22.9256}.fil1{fill:none}</style></defs><g id="Camada_x0020_1"><g id="_1372139359248"><path d="m813.22 161.26 754.89 435.84-581.12 1006.52L433.4 1284c-110.72-63.92-149.01-206.79-85.07-317.52l464.89-805.22z" style="fill:var(--cor);stroke:var(--cor);stroke-width:63.49;stroke-linejoin:round;stroke-miterlimit:22.9256"/><path class="fil1 str1" d="m2439.79 597.1-446.92 774.08c-73.81 127.85-238.78 232.44-366.63 232.44H987"/><path class="fil1" style="stroke:var(--cor);stroke-width:63.49;stroke-linecap:round;stroke-miterlimit:22.9256" d="m987 1603.61 154.11 266.93"/><path class="fil1 str1" d="m2593.9 864.02-446.92 774.09c-73.81 127.84-238.78 232.43-366.63 232.43h-639.24"/><path class="fil1 str1" d="m2516.85 730.56-446.92 774.09c-73.78 127.79-238.85 232.43-366.63 232.43h-493.97"/><path d="M3541.11 1502.39v158.36h-329.78v-58.59c-65.62 45.75-132.21 68.76-199.51 68.76-66.11 0-117.92-18.65-155.45-55.94-37.54-37.04-56.18-89.58-56.18-157.38v-325.67h-103.15V973.58h321.07v428.33c0 34.14 5.09 57.38 15.5 69.97 10.41 12.6 29.29 18.89 56.66 18.89 36.8 0 77.23-16.22 121.06-48.91v-309.93h-106.06V973.58h325.43v528.81h110.41zm120.58 158.36v-236.81h159.81c1.45 32.2 16.46 58.11 44.8 77.24 28.32 19.13 63.44 28.82 105.08 28.82 36.08 0 64.16-6.3 84.26-18.65 20.1-12.59 30.27-28.58 30.27-47.7 0-17.92-9.2-31.96-27.6-41.89-18.41-9.92-54.73-19.37-108.48-28.33-111.14-17.91-191.28-45.27-240.43-82.08-49.16-36.56-73.86-85.23-73.86-145.76 0-56.66 23.25-104.6 69.5-143.59 46.25-38.98 107.5-58.59 184.02-58.59 61.98 0 119.85 11.62 173.61 34.62v-24.45h156.9v199.03h-156.9c-14.29-47.46-64.41-71.19-150.36-71.19-63.45 0-95.17 17.68-95.17 52.78 0 13.32 6.55 23.25 19.62 30.27 12.83 6.79 46.24 15.01 99.75 24.22 84.76 14.53 148.19 29.06 190.32 43.58 42.13 14.77 76.04 38.99 101.21 72.88 25.42 33.9 38.02 74.58 38.02 122.04 0 67.31-23.97 122.27-72.16 165.13-47.95 42.86-115.97 64.41-204.11 64.41-81.84 0-138.02-16.95-168.29-50.61v34.63h-159.81zm684.03-528.82V973.58h87.17V865.83l219.37-158.11v265.86h126.39v158.35h-126.39v297.82c0 27.13 3.38 45.28 10.41 54.48 6.78 9.21 22.52 13.8 47.22 13.8 20.34 0 43.09-4.83 68.76-14.28v152.3c-56.42 23.24-111.38 34.87-165.38 34.87-120.34 0-180.38-59.81-180.38-179.18v-359.81h-87.17zm520.34 528.82v-167.07h122.03V841.37h-122.03V674.3h450.61c99.76 0 173.85 5.81 222.76 17.44 48.67 11.62 90.8 39.7 126.15 84.26 35.6 44.79 53.27 97.1 53.27 157.14 0 96.12-46.49 163.92-139.47 203.63 118.16 44.08 177.24 122.77 177.24 236.08 0 65.38-18.4 121.31-54.96 167.8-36.56 46.49-83.77 78.21-141.89 94.92-57.87 16.7-138.98 25.18-243.34 25.18h-450.37zm379.18-597.1h72.16c50.11 0 86.67-8.48 110.41-25.43 23.48-16.94 35.35-46.97 35.35-90.07 0-38.98-11.38-66.58-34.39-82.81-22.75-15.98-62.71-23.97-119.85-23.97h-63.68v222.28zm0 430.03h71.67c65.37 0 110.9-9.45 136.56-28.34 25.91-18.88 38.74-52.05 38.74-99.51 0-50.13-14.04-84.99-41.89-105.08-27.84-20.1-72.4-30.03-133.41-30.03h-71.67v262.96zm1003.4 183.05c-101.22 0-186.69-31.96-256.43-96.13-69.73-63.92-104.6-151.82-104.6-263.44s34.87-199.52 104.6-263.44c69.74-64.16 155.21-96.12 256.43-96.12 101.69 0 187.16 31.96 256.65 96.12 69.49 63.92 104.36 151.82 104.36 263.44 0 110.17-34.39 197.58-103.15 262.47-68.76 64.66-154.71 97.1-257.86 97.1zm-.73-169.98c40.67 0 73.37-15.74 98.79-46.97 25.17-31.24 37.77-80.15 37.77-146.98 0-58.59-12.34-104.35-36.8-137.28-24.46-32.94-57.87-49.4-99.76-49.4-90.08 0-135.11 65.38-135.11 195.89 0 53.51 11.14 97.81 33.65 132.44 22.28 34.87 56.18 52.3 101.46 52.3zm833.42 169.98c-101.22 0-186.69-31.96-256.43-96.13-69.73-63.92-104.6-151.82-104.6-263.44s34.87-199.52 104.6-263.44c69.74-64.16 155.21-96.12 256.43-96.12 101.69 0 187.16 31.96 256.65 96.12 69.49 63.92 104.36 151.82 104.36 263.44 0 110.17-34.38 197.58-103.15 262.47-68.76 64.66-154.71 97.1-257.86 97.1zm-.73-169.98c40.67 0 73.37-15.74 98.79-46.97 25.17-31.24 37.77-80.15 37.77-146.98 0-58.59-12.34-104.35-36.8-137.28-24.46-32.94-57.87-49.4-99.76-49.4-90.08 0-135.11 65.38-135.11 195.89 0 53.51 11.14 97.81 33.65 132.44 22.28 34.87 56.18 52.3 101.46 52.3zm466.58 154v-158.36h110.42V832.66h-110.42V674.3h328.33v622.52l234.14-192.49h-142.61V973.58h415.5v138.01h-69l-200.98 171.91 183.29 218.89h95.41v158.36H8180.6l-305.09-363.93v212.84h82.81v151.09h-411.14zm921.07 0v-167.07h149.64V841.37h-149.64V674.3h557.88v167.07h-151.09v652.31h151.09v167.07h-557.88zm640.44-528.82V973.58h323.98v63.92c66.35-49.39 133.41-74.09 201.7-74.09 138.73 0 207.99 88.41 207.99 265.13v642l-108.15-87.16-111.23 87.16v-625.53c0-37.29-5.09-62.72-15.24-76.52-10.16-13.78-26.89-20.58-50.13-20.58-40.68 0-82.33 15.01-124.94 44.8v309.68h106.05v158.36h-430.03v-158.36h104.61v-370.46h-104.61z" style="fill:var(--cor);fill-rule:nonzero;stroke:var(--cor);stroke-width:38.09;stroke-linecap:round;stroke-linejoin:round;stroke-miterlimit:22.9256"/></g></g></svg>