<svg width="28" height="30" viewBox="0 0 28 30" fill="none" xmlns="http://www.w3.org/2000/svg">
<path id="Vector" d="M14 30C14.9946 30 15.9484 29.6049 16.6517 28.9017C17.3549 28.1985 17.75 27.2447 17.75 26.2502H10.25C10.25 27.2447 10.6451 28.1985 11.3483 28.9017C12.0516 29.6049 13.0054 30 14 30ZM15.8656 2.06215C15.8918 1.80146 15.863 1.53817 15.7812 1.28927C15.6993 1.04037 15.5662 0.811389 15.3905 0.617091C15.2147 0.422792 15.0001 0.267491 14.7606 0.161203C14.5211 0.0549148 14.262 0 14 0C13.738 0 13.4789 0.0549148 13.2394 0.161203C12.9999 0.267491 12.7853 0.422792 12.6095 0.617091C12.4338 0.811389 12.3007 1.04037 12.2188 1.28927C12.137 1.53817 12.1082 1.80146 12.1344 2.06215C10.0151 2.49319 8.10992 3.64337 6.74143 5.31791C5.37295 6.99246 4.62527 9.08847 4.625 11.251C4.625 13.3097 3.6875 22.5004 0.875 24.3753H27.125C24.3125 22.5004 23.375 13.3097 23.375 11.251C23.375 6.71377 20.15 2.92648 15.8656 2.06215Z" fill="#1F4152"/>
</svg>
