<svg width="100%" height="100%" viewBox="0 0 100 100" fill="none" xmlns="http://www.w3.org/2000/svg">
<path d="M72.3335 47.2378L72.2781 47.1542L72.2071 47.0832C71.4335 46.3096 70.3843 45.875 69.2903 45.875H17.75C16.656 45.875 15.6068 46.3096 14.8332 47.0832C14.0596 47.8568 13.625 48.906 13.625 50C13.625 51.094 14.0596 52.1432 14.8332 52.9168C15.6068 53.6904 16.656 54.125 17.75 54.125H69.2903C70.3843 54.125 71.4335 53.6904 72.2071 52.9168C72.9807 52.1432 73.4153 51.094 73.4153 50C73.4153 49.6301 73.3178 49.2661 73.2165 48.9757C73.1108 48.6726 72.9753 48.3787 72.8485 48.1301C72.7207 47.8793 72.5939 47.6596 72.4995 47.5029C72.4521 47.4241 72.4121 47.3601 72.3833 47.3148C72.3689 47.2922 72.3572 47.2741 72.3488 47.2611L72.3386 47.2455L72.3354 47.2406L72.3343 47.239L72.3339 47.2383L72.3337 47.2381C72.3336 47.2379 72.3335 47.2378 71.5 47.7903L72.3335 47.2378ZM14.8332 72.0832C14.0596 72.8568 13.625 73.906 13.625 75C13.625 76.094 14.0596 77.1432 14.8332 77.9168C15.6068 78.6904 16.656 79.125 17.75 79.125H45.7903C46.8843 79.125 47.9335 78.6904 48.7071 77.9168C49.4807 77.1432 49.9153 76.094 49.9153 75C49.9153 73.906 49.4807 72.8568 48.7071 72.0832C47.9335 71.3096 46.8843 70.875 45.7903 70.875H17.75C16.656 70.875 15.6068 71.3096 14.8332 72.0832ZM14.8332 22.0832C14.0596 22.8568 13.625 23.906 13.625 25C13.625 26.094 14.0596 27.1432 14.8332 27.9168C15.6068 28.6904 16.656 29.125 17.75 29.125H80.25C81.344 29.125 82.3932 28.6904 83.1668 27.9168C83.9404 27.1432 84.375 26.094 84.375 25C84.375 23.906 83.9404 22.8568 83.1668 22.0832C82.3932 21.3096 81.344 20.875 80.25 20.875H17.75C16.656 20.875 15.6068 21.3096 14.8332 22.0832Z" fill="var(--corSVG)" stroke="var(--corSVG)" stroke-width="2"/>
</svg>
