<svg width="20" height="20" viewBox="0 0 20 20" fill="none" xmlns="http://www.w3.org/2000/svg">
<path class="iconeEsconder" d="M16.6987 14.0475C18.825 12.15 20 10 20 10C20 10 16.25 3.125 9.99995 3.125C8.79934 3.12814 7.61221 3.37833 6.51245 3.86L7.47495 4.82375C8.28461 4.53031 9.13876 4.37851 9.99995 4.375C12.65 4.375 14.8487 5.835 16.46 7.44625C17.2362 8.2251 17.9315 9.08073 18.535 10C18.4633 10.1083 18.382 10.2283 18.2912 10.36C17.8725 10.96 17.2537 11.76 16.46 12.5538C16.2541 12.7604 16.0387 12.9629 15.8137 13.1613L16.6987 14.0475Z" fill="var(--corSVG)"/>
<path class="iconeEsconder" d="M14.1212 11.47C14.4001 10.6898 14.4518 9.84645 14.2702 9.03804C14.0885 8.22963 13.6811 7.48942 13.0952 6.90354C12.5093 6.31766 11.7691 5.91019 10.9607 5.72855C10.1523 5.54691 9.3089 5.59857 8.5287 5.87752L9.55745 6.90627C10.0378 6.83751 10.5276 6.88157 10.988 7.03497C11.4484 7.18837 11.8668 7.44688 12.2099 7.79003C12.5531 8.13318 12.8116 8.55153 12.965 9.01193C13.1184 9.47233 13.1625 9.96213 13.0937 10.4425L14.1212 11.47ZM10.4425 13.0938L11.47 14.1213C10.6898 14.4002 9.84639 14.4519 9.03798 14.2702C8.22957 14.0886 7.48936 13.6811 6.90348 13.0952C6.3176 12.5094 5.91013 11.7691 5.72849 10.9607C5.54685 10.1523 5.59851 9.30896 5.87745 8.52877L6.9062 9.55752C6.83745 10.0379 6.88151 10.5277 7.03491 10.9881C7.18831 11.4485 7.44682 11.8669 7.78997 12.21C8.13312 12.5531 8.55146 12.8117 9.01187 12.9651C9.47227 13.1185 9.96207 13.1625 10.4425 13.0938Z" fill="var(--corSVG)"/>
<path class="iconeEsconder" d="M4.1875 6.83749C3.9625 7.03749 3.74667 7.24041 3.54 7.44624C2.76371 8.22509 2.06848 9.08073 1.465 10L1.70875 10.36C2.1275 10.96 2.74625 11.76 3.54 12.5537C5.15125 14.165 7.35125 15.625 10 15.625C10.895 15.625 11.7375 15.4587 12.525 15.175L13.4875 16.14C12.3877 16.6217 11.2006 16.8719 10 16.875C3.75 16.875 0 10 0 10C0 10 1.17375 7.84875 3.30125 5.9525L4.18625 6.83875L4.1875 6.83749ZM17.0575 17.9425L2.0575 2.9425L2.9425 2.0575L17.9425 17.0575L17.0575 17.9425Z" fill="var(--corSVG)"/>
</svg>