<svg class="GosteiClass" width="100%" height="100%" viewBox="0 0 20 25" fill="none" xmlns="http://www.w3.org/2000/svg">
<path d="M11.0092 0.0732887C9.47588 -0.306798 8.05161 0.843005 7.94896 2.33155C7.83348 4.00297 7.58006 5.53764 7.26249 6.45048C7.062 7.023 6.49422 8.06148 5.59443 9.05702C4.70105 10.0478 3.53822 10.9304 2.1765 11.2994C1.09868 11.5904 0 12.516 0 13.8677V20.2306C0 21.5744 1.09386 22.5589 2.32246 22.6877C4.03864 22.869 4.83097 23.3477 5.63934 23.8375L5.71633 23.8852C6.15259 24.1476 6.64338 24.4386 7.27211 24.6549C7.90887 24.8712 8.65308 25 9.62344 25H15.2371C16.74 25 17.8018 24.2414 18.3391 23.3079C18.5988 22.8674 18.7391 22.3677 18.7465 21.8575C18.7465 21.6158 18.7096 21.3613 18.623 21.1196C18.9454 20.7014 19.2325 20.2004 19.4057 19.6867C19.5821 19.1619 19.6815 18.4749 19.4121 17.8595C19.5228 17.6527 19.6046 17.4317 19.6671 17.2186C19.7906 16.7892 19.8484 16.3153 19.8484 15.8556C19.8484 15.3976 19.7906 14.9253 19.6671 14.4943C19.611 14.2962 19.5369 14.1035 19.4458 13.9186C19.7266 13.5224 19.9073 13.0651 19.9726 12.5852C20.0379 12.1053 19.986 11.6168 19.8211 11.161C19.4907 10.2195 18.7272 9.41166 17.8964 9.13813C16.5379 8.68965 15.0046 8.6992 13.861 8.80257C13.6235 8.82375 13.3866 8.85026 13.1504 8.88208C13.7068 6.51948 13.6727 4.05786 13.051 1.71132C12.9428 1.33535 12.7353 0.994857 12.45 0.72505C12.1646 0.455243 11.8117 0.26592 11.4278 0.17666L11.0092 0.0732887ZM15.2371 23.4113H9.62344C8.80545 23.4113 8.23927 23.3015 7.79499 23.1505C7.34429 22.9962 6.98341 22.7879 6.55036 22.5255L6.4862 22.4873C5.59603 21.9482 4.56472 21.3248 2.49247 21.1069C1.95837 21.0496 1.60391 20.6457 1.60391 20.2322V13.8677C1.60391 13.4638 1.96639 13.0042 2.59833 12.834C4.35461 12.3569 5.76925 11.2501 6.79094 10.1178C7.80942 8.98864 8.4975 7.77204 8.77658 6.97211C9.16633 5.85888 9.42937 4.16042 9.54966 2.43969C9.58976 1.86399 10.1271 1.49504 10.6195 1.6159L11.0397 1.72086C11.2963 1.78448 11.4535 1.94828 11.5016 2.12639C12.1566 4.60097 12.0759 7.21057 11.2691 9.64067C11.2234 9.77582 11.2152 9.92067 11.2453 10.06C11.2755 10.1994 11.3429 10.3282 11.4404 10.4329C11.538 10.5376 11.6621 10.6143 11.7999 10.6551C11.9376 10.696 12.0839 10.6993 12.2234 10.6648L12.2282 10.6632L12.2506 10.6585L12.3437 10.6362C12.8921 10.5207 13.447 10.4374 14.0053 10.3865C15.0687 10.2911 16.3422 10.3007 17.3896 10.6473C17.6702 10.7396 18.1113 11.1244 18.3038 11.6811C18.4754 12.1709 18.4433 12.7466 17.8771 13.3064L17.311 13.8677L17.8771 14.4307C17.9461 14.4991 18.0456 14.655 18.1242 14.9317C18.2011 15.1973 18.2444 15.5201 18.2444 15.8556C18.2444 16.1928 18.2011 16.514 18.1242 16.7812C18.044 17.0579 17.9461 17.2138 17.8771 17.2822L17.311 17.8435L17.8771 18.4065C17.9525 18.4813 18.052 18.688 17.8852 19.1826C17.7114 19.6622 17.4351 20.0989 17.0752 20.4628L16.509 21.0242L17.0752 21.5872C17.0848 21.5951 17.141 21.6667 17.141 21.8575C17.1338 22.0908 17.0671 22.3184 16.9469 22.5191C16.6822 22.9771 16.1401 23.4113 15.2371 23.4113Z" fill="var(--corSVG)"/>
</svg>
