<svg width="100%" height="100%" viewBox="0 0 120 120" fill="none" xmlns="http://www.w3.org/2000/svg">
<path d="M56.304 4.05666C58.2872 1.87989 61.7128 1.87989 63.696 4.05666L70.2645 11.2661C71.5801 12.7101 73.6163 13.2557 75.4776 12.6629L84.7708 9.70364C87.5768 8.81012 90.5434 10.5229 91.1725 13.3996L93.2563 22.9275C93.6736 24.8358 95.1642 26.3264 97.0726 26.7437L106.6 28.8275C109.477 29.4567 111.19 32.4232 110.296 35.2292L107.337 44.5224C106.744 46.3838 107.29 48.4199 108.734 49.7355L115.943 56.304C118.12 58.2872 118.12 61.7128 115.943 63.696L108.734 70.2645C107.29 71.5801 106.744 73.6163 107.337 75.4776L110.296 84.7708C111.19 87.5768 109.477 90.5434 106.6 91.1725L97.0725 93.2563C95.1642 93.6736 93.6736 95.1642 93.2563 97.0726L91.1725 106.6C90.5434 109.477 87.5768 111.19 84.7708 110.296L75.4776 107.337C73.6163 106.744 71.5801 107.29 70.2645 108.734L63.696 115.943C61.7128 118.12 58.2872 118.12 56.304 115.943L49.7355 108.734C48.4199 107.29 46.3837 106.744 44.5224 107.337L35.2292 110.296C32.4232 111.19 29.4567 109.477 28.8275 106.6L26.7437 97.0725C26.3264 95.1642 24.8358 93.6736 22.9274 93.2563L13.3996 91.1725C10.5229 90.5434 8.81012 87.5768 9.70364 84.7708L12.6629 75.4776C13.2557 73.6163 12.7101 71.5801 11.2661 70.2645L4.05665 63.696C1.87988 61.7128 1.87989 58.2872 4.05666 56.304L11.2661 49.7355C12.7101 48.4199 13.2557 46.3837 12.6629 44.5224L9.70364 35.2292C8.81012 32.4232 10.5229 29.4567 13.3996 28.8275L22.9275 26.7437C24.8358 26.3264 26.3264 24.8358 26.7437 22.9274L28.8275 13.3996C29.4567 10.5229 32.4232 8.81012 35.2292 9.70364L44.5224 12.6629C46.3838 13.2557 48.4199 12.7101 49.7355 11.2661L56.304 4.05666Z" fill="var(--corSVG)"/>
<path d="M83.1038 38.1997C83.476 37.8198 83.9203 37.5181 84.4106 37.3121C84.901 37.1061 85.4274 37 85.9593 37C86.4911 37 87.0176 37.1061 87.5079 37.3121C87.9982 37.5181 88.4425 37.8198 88.8148 38.1997C90.3748 39.7761 90.3966 42.3234 88.8693 43.9271L56.616 82.0551C56.2498 82.4572 55.8054 82.7804 55.31 83.0049C54.8146 83.2294 54.2786 83.3504 53.7348 83.3606C53.1911 83.3708 52.6509 83.27 52.1474 83.0643C51.644 82.8586 51.1878 82.5523 50.8067 82.1642L31.1809 62.2765C30.424 61.5046 30 60.4666 30 59.3856C30 58.3045 30.424 57.2665 31.1809 56.4946C31.5531 56.1148 31.9974 55.813 32.4878 55.607C32.9781 55.401 33.5046 55.2949 34.0364 55.2949C34.5682 55.2949 35.0947 55.401 35.585 55.607C36.0754 55.813 36.5197 56.1148 36.8919 56.4946L53.5395 73.3658L82.9947 38.3197L83.1038 38.1997Z" fill="var(--branco)"/>
</svg>
