<svg width="100%" height="100%" viewBox="0 0 20 25" fill="none" xmlns="http://www.w3.org/2000/svg">
<path d="M11.0099 24.9262C9.47647 25.3079 8.05371 24.1565 7.94945 22.668C7.83396 20.9982 7.58053 19.4636 7.26294 18.5492C7.06244 17.9767 6.49462 16.9398 5.59477 15.9443C4.70134 14.9519 3.53844 14.0693 2.17664 13.702C1.09874 13.4093 0 12.4838 0 11.132V4.77088C0 3.42708 1.09393 2.44269 2.3226 2.31228C4.03889 2.13258 4.83126 1.65231 5.63968 1.1625L5.71668 1.11639C6.15297 0.852397 6.64379 0.561373 7.27256 0.346684C7.90935 0.127223 8.65361 0 9.62403 0H15.2381C16.741 0 17.8029 0.76016 18.3402 1.69207C18.6033 2.14848 18.7476 2.65738 18.7476 3.14401C18.7476 3.38573 18.7107 3.64018 18.6241 3.8819C18.9465 4.29856 19.2336 4.7995 19.4069 5.31317C19.5833 5.83796 19.6828 6.52497 19.4133 7.142C19.524 7.34874 19.6058 7.5682 19.6683 7.78289C19.7918 8.21227 19.8496 8.68459 19.8496 9.14418C19.8496 9.60378 19.7918 10.0761 19.6683 10.5055C19.6122 10.6963 19.54 10.8935 19.447 11.0827C20.0789 11.9908 20.1174 12.9911 19.8223 13.8387C19.4919 14.7802 18.7284 15.588 17.8975 15.8616C16.5389 16.3116 15.0055 16.3005 13.8618 16.1971C13.6244 16.1759 13.3875 16.1494 13.1512 16.1176C13.708 18.4807 13.6739 20.9428 13.0518 23.2898C12.8304 24.0977 12.1696 24.6384 11.4285 24.8229L11.0099 24.9262ZM15.2381 1.59029H9.62403C8.80599 1.59029 8.23978 1.69843 7.79547 1.84951C7.34474 2.00377 6.98384 2.21369 6.55076 2.47449L6.4866 2.51425C5.59638 3.05177 4.565 3.67517 2.49262 3.89463C1.95849 3.95029 1.60401 4.35581 1.60401 4.76929V11.132C1.60401 11.5376 1.96651 11.9956 2.59849 12.1657C4.35488 12.6428 5.76961 13.7513 6.79136 14.8835C7.8099 16.0127 8.49802 17.2292 8.77712 18.0276C9.16689 19.1408 9.42995 20.8392 9.55025 22.5599C9.59035 23.1356 10.1277 23.5061 10.6201 23.3837L11.0404 23.2803C11.297 23.2167 11.4542 23.0513 11.5023 22.8748C12.1577 20.3997 12.0769 17.7896 11.2697 15.359C11.2245 15.224 11.2166 15.0793 11.2469 14.9402C11.2772 14.8011 11.3446 14.6726 11.4421 14.5681C11.5396 14.4637 11.6636 14.3871 11.8012 14.3463C11.9387 14.3056 12.0848 14.3022 12.2241 14.3365H12.2289L12.2514 14.3428L12.3444 14.3635C12.8929 14.479 13.4478 14.5624 14.0062 14.6132C15.0696 14.7086 16.3432 14.6991 17.3906 14.354C17.6713 14.2601 18.1124 13.8753 18.3049 13.3187C18.4765 12.8289 18.4445 12.2532 17.8782 11.695L17.312 11.132L17.8782 10.5691C17.9472 10.5023 18.0467 10.3464 18.1253 10.0681C18.2023 9.80256 18.2456 9.47973 18.2456 9.14418C18.2456 8.80863 18.2023 8.4858 18.1253 8.22022C18.0451 7.94351 17.9472 7.78607 17.8782 7.71928L17.312 7.15631L17.8782 6.59335C17.9536 6.51861 18.0531 6.31346 17.8863 5.81729C17.7122 5.33825 17.4359 4.90212 17.0762 4.53869L16.51 3.97573L17.0762 3.41277C17.0859 3.40482 17.142 3.33325 17.142 3.14242C17.1346 2.9097 17.0679 2.68263 16.9479 2.48245C16.6817 2.02285 16.1411 1.59029 15.2381 1.59029Z" fill="var(--corSVG)"/>
</svg>
