<svg width="100%" height="100%" viewBox="0 0 56 45" fill="none" xmlns="http://www.w3.org/2000/svg">
<path d="M17.3968 45C38.2964 45 49.7293 27.6828 49.7293 12.6917C49.7293 12.2071 49.7293 11.7156 49.7085 11.231C51.9344 9.61972 53.8554 7.62482 55.3817 5.33981C53.3025 6.25655 51.0991 6.86075 48.8432 7.13279C51.2195 5.71238 52.9993 3.47749 53.8517 0.843508C51.6191 2.16617 49.1755 3.09468 46.6279 3.58836C44.9152 1.76431 42.6487 0.555931 40.1797 0.150398C37.7106 -0.255135 35.1768 0.164811 32.9706 1.34519C30.7644 2.52556 29.0089 4.40049 27.9762 6.67956C26.9435 8.95862 26.6911 11.5146 27.2582 13.9517C22.7402 13.7251 18.3203 12.5514 14.2852 10.5067C10.25 8.46201 6.6897 5.59194 3.83518 2.08267C2.38605 4.58552 1.94381 7.54608 2.59825 10.3632C3.2527 13.1802 4.95477 15.6426 7.35884 17.2503C5.55734 17.1891 3.79545 16.7054 2.21527 15.8381V15.9939C2.21837 18.6158 3.12667 21.1562 4.78662 23.1857C6.44657 25.2152 8.75635 26.6094 11.3256 27.1325C10.3504 27.4011 9.34299 27.5351 8.33148 27.5305C7.61838 27.5327 6.90672 27.4666 6.20621 27.3332C6.93235 29.5902 8.34627 31.5636 10.2499 32.9769C12.1536 34.3902 14.4516 35.1727 16.8222 35.2148C12.7951 38.3777 7.82059 40.0932 2.69986 40.0849C1.79755 40.0887 0.895878 40.0367 0 39.9291C5.19727 43.2425 11.2331 45.0019 17.3968 45Z" fill="var(--corSVG)"/>
</svg>
