<svg width="30" height="30" viewBox="0 0 30 30" fill="none" xmlns="http://www.w3.org/2000/svg">
<path id="Vector" d="M0 1.07146C0 0.787289 0.121566 0.51476 0.337954 0.313823C0.554342 0.112885 0.847827 0 1.15385 0H28.8462C29.1522 0 29.4457 0.112885 29.662 0.313823C29.8784 0.51476 30 0.787289 30 1.07146V5.35729C29.9999 5.62153 29.8947 5.87643 29.7046 6.07302L19.6154 16.4833V26.7864C19.6152 27.0112 19.5389 27.2303 19.3972 27.4126C19.2556 27.5948 19.0558 27.7311 18.8262 27.8022L11.9031 29.9451C11.7297 29.9987 11.5451 30.0133 11.3645 29.9877C11.1838 29.9622 11.0123 29.8971 10.864 29.7979C10.7158 29.6987 10.595 29.5683 10.5116 29.4173C10.4283 29.2663 10.3848 29.099 10.3846 28.9294V16.4833L0.295385 6.07302C0.10525 5.87643 5.11162e-05 5.62153 0 5.35729V1.07146ZM2.30769 2.14292V4.94585L12.3969 15.3561C12.5871 15.5527 12.6923 15.8076 12.6923 16.0719V27.4422L17.3077 26.015V16.0719C17.3077 15.8076 17.4129 15.5527 17.6031 15.3561L27.6923 4.94585V2.14292H2.30769Z" fill="#E7E1D5"/>
</svg>
