<svg width="25" height="26" viewBox="0 0 25 26" fill="none" xmlns="http://www.w3.org/2000/svg">
<path class="iconeEditar" d="M24.2219 3.53125C24.3679 3.6777 24.4499 3.87604 24.4499 4.08282C24.4499 4.28959 24.3679 4.48794 24.2219 4.63438L22.5922 6.26563L19.4672 3.14063L21.0969 1.50938C21.2434 1.36292 21.4421 1.28064 21.6493 1.28064C21.8564 1.28064 22.0551 1.36292 22.2016 1.50938L24.2219 3.52969V3.53125ZM21.4875 7.36875L18.3625 4.24375L7.71723 14.8906C7.63124 14.9766 7.5665 15.0815 7.52817 15.1969L6.27036 18.9688C6.24755 19.0375 6.24431 19.1113 6.261 19.1818C6.2777 19.2523 6.31367 19.3167 6.3649 19.368C6.41613 19.4192 6.48059 19.4552 6.55109 19.4719C6.62159 19.4886 6.69534 19.4853 6.76411 19.4625L10.536 18.2047C10.6512 18.1668 10.7561 18.1026 10.8422 18.0172L21.4875 7.36875Z" fill="#6EBBB0"/>
<path class="iconeEditar" fill-rule="evenodd" clip-rule="evenodd" d="M1.5625 21.5938C1.5625 22.2154 1.80943 22.8115 2.24897 23.251C2.68851 23.6906 3.28465 23.9375 3.90625 23.9375H21.0938C21.7154 23.9375 22.3115 23.6906 22.751 23.251C23.1906 22.8115 23.4375 22.2154 23.4375 21.5938V12.2188C23.4375 12.0115 23.3552 11.8128 23.2087 11.6663C23.0622 11.5198 22.8635 11.4375 22.6562 11.4375C22.449 11.4375 22.2503 11.5198 22.1038 11.6663C21.9573 11.8128 21.875 12.0115 21.875 12.2188V21.5938C21.875 21.801 21.7927 21.9997 21.6462 22.1462C21.4997 22.2927 21.301 22.375 21.0938 22.375H3.90625C3.69905 22.375 3.50034 22.2927 3.35382 22.1462C3.20731 21.9997 3.125 21.801 3.125 21.5938V4.40625C3.125 4.19905 3.20731 4.00034 3.35382 3.85382C3.50034 3.70731 3.69905 3.625 3.90625 3.625H14.0625C14.2697 3.625 14.4684 3.54269 14.6149 3.39618C14.7614 3.24966 14.8438 3.05095 14.8438 2.84375C14.8438 2.63655 14.7614 2.43784 14.6149 2.29132C14.4684 2.14481 14.2697 2.0625 14.0625 2.0625H3.90625C3.28465 2.0625 2.68851 2.30943 2.24897 2.74897C1.80943 3.18851 1.5625 3.78465 1.5625 4.40625V21.5938Z" fill="#6EBBB0"/>
</svg>
