<svg class="excluir" width="18" height="20" viewBox="0 0 18 20" fill="none" xmlns="http://www.w3.org/2000/svg">
<path d="M5.28343 7.40002C5.46466 7.40002 5.63847 7.46926 5.76662 7.5925C5.89477 7.71574 5.96676 7.88288 5.96676 8.05717V15.9429C5.96676 16.1172 5.89477 16.2843 5.76662 16.4076C5.63847 16.5308 5.46466 16.6 5.28343 16.6C5.1022 16.6 4.92839 16.5308 4.80024 16.4076C4.67209 16.2843 4.6001 16.1172 4.6001 15.9429V8.05717C4.6001 7.88288 4.67209 7.71574 4.80024 7.5925C4.92839 7.46926 5.1022 7.40002 5.28343 7.40002ZM8.7001 7.40002C8.88133 7.40002 9.05514 7.46926 9.18329 7.5925C9.31144 7.71574 9.38343 7.88288 9.38343 8.05717V15.9429C9.38343 16.1172 9.31144 16.2843 9.18329 16.4076C9.05514 16.5308 8.88133 16.6 8.7001 16.6C8.51887 16.6 8.34506 16.5308 8.21691 16.4076C8.08876 16.2843 8.01676 16.1172 8.01676 15.9429V8.05717C8.01676 7.88288 8.08876 7.71574 8.21691 7.5925C8.34506 7.46926 8.51887 7.40002 8.7001 7.40002ZM12.8001 8.05717C12.8001 7.88288 12.7281 7.71574 12.6 7.5925C12.4718 7.46926 12.298 7.40002 12.1168 7.40002C11.9355 7.40002 11.7617 7.46926 11.6336 7.5925C11.5054 7.71574 11.4334 7.88288 11.4334 8.05717V15.9429C11.4334 16.1172 11.5054 16.2843 11.6336 16.4076C11.7617 16.5308 11.9355 16.6 12.1168 16.6C12.298 16.6 12.4718 16.5308 12.6 16.4076C12.7281 16.2843 12.8001 16.1172 12.8001 15.9429V8.05717Z" fill="#7C7C7C"/>
<path fill-rule="evenodd" clip-rule="evenodd" d="M17.4 4C17.4 4.35362 17.259 4.69276 17.008 4.94281C16.757 5.19286 16.4165 5.33333 16.0615 5.33333H15.3923V17.3333C15.3923 18.0406 15.1103 18.7189 14.6083 19.219C14.1062 19.719 13.4253 20 12.7154 20H4.68462C3.97465 20 3.29377 19.719 2.79174 19.219C2.28972 18.7189 2.00769 18.0406 2.00769 17.3333V5.33333H1.33846C0.983479 5.33333 0.643036 5.19286 0.392026 4.94281C0.141016 4.69276 0 4.35362 0 4V2.66667C0 2.31304 0.141016 1.97391 0.392026 1.72386C0.643036 1.47381 0.983479 1.33333 1.33846 1.33333H6.02308C6.02308 0.979711 6.16409 0.640573 6.4151 0.390524C6.66611 0.140476 7.00656 0 7.36154 0L10.0385 0C10.3934 0 10.7339 0.140476 10.9849 0.390524C11.2359 0.640573 11.3769 0.979711 11.3769 1.33333H16.0615C16.4165 1.33333 16.757 1.47381 17.008 1.72386C17.259 1.97391 17.4 2.31304 17.4 2.66667V4ZM3.50409 5.33333L3.34615 5.412V17.3333C3.34615 17.687 3.48717 18.0261 3.73818 18.2761C3.98919 18.5262 4.32963 18.6667 4.68462 18.6667H12.7154C13.0704 18.6667 13.4108 18.5262 13.6618 18.2761C13.9128 18.0261 14.0538 17.687 14.0538 17.3333V5.412L13.8959 5.33333H3.50409ZM1.33846 4V2.66667H16.0615V4H1.33846Z" fill="#7C7C7C"/>
</svg>
