<svg width="25" height="26" viewBox="0 0 25 26" fill="none" xmlns="http://www.w3.org/2000/svg">
<path class="iconeOpcoes" d="M14.8438 20.8125C14.8437 21.4341 14.5968 22.0302 14.1573 22.4698C13.7177 22.9093 13.1216 23.1562 12.5 23.1562C11.8784 23.1562 11.2823 22.9093 10.8427 22.4698C10.4032 22.0302 10.1562 21.4341 10.1562 20.8125C10.1562 20.1909 10.4032 19.5948 10.8427 19.1552C11.2823 18.7157 11.8784 18.4688 12.5 18.4688C13.1216 18.4688 13.7177 18.7157 14.1573 19.1552C14.5968 19.5948 14.8438 20.1909 14.8438 20.8125ZM14.8438 13C14.8437 13.6216 14.5968 14.2177 14.1573 14.6573C13.7177 15.0968 13.1216 15.3437 12.5 15.3438C11.8784 15.3437 11.2823 15.0968 10.8427 14.6573C10.4032 14.2177 10.1562 13.6216 10.1562 13C10.1562 12.3784 10.4032 11.7823 10.8427 11.3427C11.2823 10.9032 11.8784 10.6563 12.5 10.6562C13.1216 10.6562 13.7177 10.9032 14.1573 11.3427C14.5968 11.7823 14.8438 12.3784 14.8438 13ZM14.8438 5.1875C14.8437 5.8091 14.5968 6.40524 14.1573 6.84478C13.7177 7.28432 13.1216 7.53125 12.5 7.53125C11.8784 7.53125 11.2823 7.28432 10.8427 6.84478C10.4032 6.40524 10.1562 5.8091 10.1562 5.1875C10.1562 4.5659 10.4032 3.96976 10.8427 3.53022C11.2823 3.09068 11.8784 2.84375 12.5 2.84375C13.1216 2.84375 13.7177 3.09068 14.1573 3.53022C14.5968 3.96976 14.8438 4.5659 14.8438 5.1875Z" fill="#6EBBB0"/>
</svg>
