<svg width="25" height="25" viewBox="0 0 25 25" fill="none" xmlns="http://www.w3.org/2000/svg">
<path class="iconeReplace" d="M18.0219 10.9374H24.1656C24.2399 10.9375 24.3125 10.9586 24.3752 10.9985C24.4378 11.0383 24.4878 11.0952 24.5192 11.1624C24.5507 11.2296 24.5624 11.3044 24.5529 11.378C24.5434 11.4517 24.5131 11.521 24.4656 11.5781L21.3938 15.2656C21.3571 15.3095 21.3112 15.3449 21.2594 15.3692C21.2075 15.3934 21.151 15.406 21.0938 15.406C21.0365 15.406 20.98 15.3934 20.9281 15.3692C20.8763 15.3449 20.8304 15.3095 20.7938 15.2656L17.7219 11.5781C17.6744 11.521 17.6441 11.4517 17.6346 11.378C17.6251 11.3044 17.6368 11.2296 17.6683 11.1624C17.6998 11.0952 17.7497 11.0383 17.8124 10.9985C17.875 10.9586 17.9477 10.9375 18.0219 10.9374ZM0.834387 14.0624H6.97814C7.05236 14.0624 7.12504 14.0412 7.18767 14.0014C7.25029 13.9616 7.30027 13.9047 7.33175 13.8375C7.36323 13.7703 7.3749 13.6955 7.36541 13.6219C7.35591 13.5482 7.32564 13.4789 7.27814 13.4218L4.20626 9.73432C4.1696 9.69036 4.12373 9.65499 4.07189 9.63072C4.02005 9.60645 3.9635 9.59387 3.90626 9.59387C3.84902 9.59387 3.79248 9.60645 3.74064 9.63072C3.6888 9.65499 3.64292 9.69036 3.60626 9.73432L0.534387 13.4218C0.486884 13.4789 0.456613 13.5482 0.447118 13.6219C0.437623 13.6955 0.449299 13.7703 0.480777 13.8375C0.512255 13.9047 0.562233 13.9616 0.624858 14.0014C0.687483 14.0412 0.760163 14.0624 0.834387 14.0624Z" fill="#6EBBB0"/>
<path class="iconeReplace" fill-rule="evenodd" clip-rule="evenodd" d="M12.5 4.68747C10.075 4.68747 7.90626 5.79215 6.47345 7.52809C6.40947 7.61102 6.32947 7.68023 6.2382 7.73162C6.14694 7.78301 6.04627 7.81552 5.94218 7.82722C5.8381 7.83893 5.73273 7.82958 5.63233 7.79974C5.53193 7.7699 5.43856 7.72018 5.35776 7.65353C5.27696 7.58688 5.21039 7.50467 5.16201 7.41177C5.11362 7.31888 5.08441 7.2172 5.07611 7.11279C5.0678 7.00838 5.08058 6.90337 5.11368 6.804C5.14677 6.70463 5.19951 6.61292 5.26876 6.53434C6.41281 5.14923 7.93062 4.12186 9.64167 3.57443C11.3527 3.027 13.185 2.98255 14.9206 3.44636C16.6562 3.91017 18.222 4.86272 19.4319 6.19073C20.6418 7.51873 21.4447 9.1663 21.7453 10.9375H20.1563C19.7961 9.17283 18.8372 7.58685 17.442 6.44793C16.0469 5.309 14.301 4.6871 12.5 4.68747ZM4.84376 14.0625C5.13956 15.5072 5.83806 16.8388 6.85857 17.9033C7.87908 18.9679 9.17995 19.722 10.6109 20.0785C12.0418 20.4351 13.5445 20.3795 14.9452 19.9183C16.3459 19.457 17.5875 18.6089 18.5266 17.4718C18.5906 17.3889 18.6706 17.3197 18.7618 17.2683C18.8531 17.2169 18.9538 17.1844 19.0578 17.1727C19.1619 17.161 19.2673 17.1704 19.3677 17.2002C19.4681 17.23 19.5615 17.2798 19.6423 17.3464C19.7231 17.4131 19.7896 17.4953 19.838 17.5882C19.8864 17.6811 19.9156 17.7827 19.9239 17.8871C19.9322 17.9915 19.9194 18.0966 19.8863 18.1959C19.8532 18.2953 19.8005 18.387 19.7313 18.4656C18.5872 19.8507 17.0694 20.8781 15.3583 21.4255C13.6473 21.9729 11.815 22.0174 10.0794 21.5536C8.34384 21.0898 6.77799 20.1372 5.56812 18.8092C4.35825 17.4812 3.55527 15.8336 3.2547 14.0625H4.84376Z" fill="#6EBBB0"/>
</svg>
