<svg width="15" height="26" viewBox="0 0 15 26" fill="none" xmlns="http://www.w3.org/2000/svg">
<path id="Vector" fill-rule="evenodd" clip-rule="evenodd" d="M14.6853 0.782455C14.7851 0.871763 14.8642 0.977858 14.9182 1.09466C14.9722 1.21147 15 1.33668 15 1.46314C15 1.58961 14.9722 1.71482 14.9182 1.83163C14.8642 1.94843 14.7851 2.05453 14.6853 2.14383L2.58768 13.0003L14.6853 23.8567C14.8864 24.0372 14.9994 24.2821 14.9994 24.5374C14.9994 24.7927 14.8864 25.0375 14.6853 25.2181C14.4842 25.3986 14.2114 25.5 13.9269 25.5C13.6425 25.5 13.3697 25.3986 13.1686 25.2181L0.314691 13.6809C0.214939 13.5916 0.135795 13.4855 0.0817952 13.3687C0.0277951 13.2519 0 13.1267 0 13.0003C0 12.8738 0.0277951 12.7486 0.0817952 12.6318C0.135795 12.515 0.214939 12.4089 0.314691 12.3196L13.1686 0.782455C13.2681 0.692921 13.3863 0.621885 13.5164 0.573417C13.6465 0.524949 13.786 0.5 13.9269 0.5C14.0678 0.5 14.2073 0.524949 14.3375 0.573417C14.4676 0.621885 14.5858 0.692921 14.6853 0.782455Z" fill="black"/>
</svg>
