<svg class="excluirHover" width="18" height="20" viewBox="0 0 18 20" fill="none" xmlns="http://www.w3.org/2000/svg">
<path d="M1.33846 1.33333C0.983479 1.33333 0.643036 1.47381 0.392026 1.72386C0.141016 1.97391 0 2.31304 0 2.66667V4C0 4.35362 0.141016 4.69276 0.392026 4.94281C0.643036 5.19286 0.983479 5.33333 1.33846 5.33333H2.00769V17.3333C2.00769 18.0406 2.28972 18.7189 2.79174 19.219C3.29377 19.719 3.97465 20 4.68462 20H12.7154C13.4253 20 14.1062 19.719 14.6083 19.219C15.1103 18.7189 15.3923 18.0406 15.3923 17.3333V5.33333H16.0615C16.4165 5.33333 16.757 5.19286 17.008 4.94281C17.259 4.69276 17.4 4.35362 17.4 4V2.66667C17.4 2.31304 17.259 1.97391 17.008 1.72386C16.757 1.47381 16.4165 1.33333 16.0615 1.33333H11.3769C11.3769 0.979711 11.2359 0.640573 10.9849 0.390524C10.7339 0.140476 10.3934 0 10.0385 0L7.36154 0C7.00656 0 6.66611 0.140476 6.4151 0.390524C6.16409 0.640573 6.02308 0.979711 6.02308 1.33333H1.33846ZM5.35385 6.66667C5.53134 6.66667 5.70156 6.7369 5.82706 6.86193C5.95257 6.98695 6.02308 7.15652 6.02308 7.33333V16.6667C6.02308 16.8435 5.95257 17.013 5.82706 17.1381C5.70156 17.2631 5.53134 17.3333 5.35385 17.3333C5.17636 17.3333 5.00613 17.2631 4.88063 17.1381C4.75512 17.013 4.68462 16.8435 4.68462 16.6667V7.33333C4.68462 7.15652 4.75512 6.98695 4.88063 6.86193C5.00613 6.7369 5.17636 6.66667 5.35385 6.66667ZM8.7 6.66667C8.87749 6.66667 9.04771 6.7369 9.17322 6.86193C9.29872 6.98695 9.36923 7.15652 9.36923 7.33333V16.6667C9.36923 16.8435 9.29872 17.013 9.17322 17.1381C9.04771 17.2631 8.87749 17.3333 8.7 17.3333C8.52251 17.3333 8.35229 17.2631 8.22678 17.1381C8.10128 17.013 8.03077 16.8435 8.03077 16.6667V7.33333C8.03077 7.15652 8.10128 6.98695 8.22678 6.86193C8.35229 6.7369 8.52251 6.66667 8.7 6.66667ZM12.7154 7.33333V16.6667C12.7154 16.8435 12.6449 17.013 12.5194 17.1381C12.3939 17.2631 12.2236 17.3333 12.0462 17.3333C11.8687 17.3333 11.6984 17.2631 11.5729 17.1381C11.4474 17.013 11.3769 16.8435 11.3769 16.6667V7.33333C11.3769 7.15652 11.4474 6.98695 11.5729 6.86193C11.6984 6.7369 11.8687 6.66667 12.0462 6.66667C12.2236 6.66667 12.3939 6.7369 12.5194 6.86193C12.6449 6.98695 12.7154 7.15652 12.7154 7.33333Z" fill="#AA0000"/>
</svg>
