<svg width="100%" height="100%" viewBox="0 0 20 25" fill="none" xmlns="http://www.w3.org/2000/svg">
<path d="M7.94945 2.33091C8.05371 0.844018 9.47647 -0.305737 11.0099 0.0727437L11.4285 0.177701C12.1712 0.36217 12.8304 0.902857 13.0518 1.7123C13.4047 3.00995 13.9067 5.70543 13.1512 8.88435C13.3875 8.852 13.6244 8.82496 13.8618 8.80325C15.0055 8.69988 16.5389 8.68875 17.8975 9.1372C18.7284 9.41232 19.4919 10.2202 19.8223 11.1616C20.1174 12.0076 20.0789 13.0095 19.447 13.9175C19.54 14.1067 19.6122 14.3024 19.6683 14.4948C19.7918 14.9241 19.8496 15.3964 19.8496 15.856C19.8496 16.3156 19.7918 16.7879 19.6683 17.2173C19.6058 17.432 19.524 17.6514 19.4117 17.8598C19.6828 18.4752 19.5833 19.1622 19.4069 19.6854C19.2262 20.202 18.9618 20.6859 18.6241 21.1182C18.7107 21.3599 18.746 21.6143 18.746 21.8577C18.746 22.3427 18.6033 22.8516 18.3402 23.308C17.8045 24.2399 16.741 25 15.2381 25H9.62403C8.65361 25 7.90775 24.8712 7.27256 24.6533C6.72639 24.4556 6.20446 24.1974 5.71668 23.8836L5.63968 23.8359C4.83127 23.3477 4.03728 22.8675 2.3226 22.6878C1.09393 22.5574 0 21.5746 0 20.2292V13.8682C0 12.5165 1.09874 11.591 2.17664 11.2999C3.53844 10.931 4.70134 10.0484 5.59638 9.05769C6.49462 8.0606 7.06244 7.02216 7.26294 6.45126C7.58214 5.53686 7.83396 4.00386 7.94945 2.3325V2.33091Z" fill="var(--corSVG)"/>
</svg>