<svg width="100%" height="100%" viewBox="0 0 20 14" fill="none" xmlns="http://www.w3.org/2000/svg">
<g clip-path="url(#clip0_1259_2516)">
<path class="iconeMostrar" d="M20 6.875C20 6.875 16.25 0 10 0C3.75 0 0 6.875 0 6.875C0 6.875 3.75 13.75 10 13.75C16.25 13.75 20 6.875 20 6.875ZM1.46625 6.875C2.06973 5.95573 2.76496 5.1001 3.54125 4.32125C5.15 2.71 7.35 1.25 10 1.25C12.65 1.25 14.8488 2.71 16.46 4.32125C17.2363 5.1001 17.9315 5.95573 18.535 6.875C18.4633 6.98333 18.3821 7.10333 18.2913 7.235C17.8725 7.835 17.2538 8.635 16.46 9.42875C14.8488 11.04 12.6487 12.5 10 12.5C7.35125 12.5 5.15125 11.04 3.54 9.42875C2.76371 8.6499 2.06973 7.79427 1.46625 6.875Z" fill="#1F4152"/>
<path class="iconeMostrar" d="M10 3.8058C9.1712 3.8058 8.37634 4.12916 7.79029 4.70475C7.20424 5.28034 6.875 6.061 6.875 6.875C6.875 7.689 7.20424 8.46966 7.79029 9.04525C8.37634 9.62084 9.1712 9.9442 10 9.9442C10.8288 9.9442 11.6237 9.62084 12.2097 9.04525C12.7958 8.46966 13.125 7.689 13.125 6.875C13.125 6.061 12.7958 5.28034 12.2097 4.70475C11.6237 4.12916 10.8288 3.8058 10 3.8058ZM5.625 6.875C5.625 5.7354 6.08594 4.64247 6.90641 3.83665C7.72688 3.03083 8.83968 2.57813 10 2.57812C11.1603 2.57812 12.2731 3.03083 13.0936 3.83665C13.9141 4.64247 14.375 5.7354 14.375 6.875C14.375 8.0146 13.9141 9.10753 13.0936 9.91335C12.2731 10.7192 11.1603 11.1719 10 11.1719C8.83968 11.1719 7.72688 10.7192 6.90641 9.91335C6.08594 9.10753 5.625 8.0146 5.625 6.875Z" fill="#1F4152"/>
</g>
<defs>
<clipPath id="clip0_1259_2516">
<rect width="20" height="13.75" fill="white"/>
</clipPath>
</defs>
</svg>
