<svg width="20" height="25" viewBox="0 0 20 25" fill="none" xmlns="http://www.w3.org/2000/svg">
<path d="M7.94867 22.6685C8.05292 24.157 9.47553 25.3068 11.0088 24.9267L11.4274 24.8233C11.8114 24.7344 12.1645 24.5452 12.4499 24.2753C12.7353 24.0055 12.9426 23.6648 13.0505 23.2887C13.4034 21.991 13.9054 19.2938 13.1499 16.1163C13.3681 16.1481 13.607 16.1752 13.8604 16.1974C15.004 16.3008 16.5373 16.3103 17.8957 15.8619C18.7265 15.5867 19.49 14.7805 19.8203 13.839C19.9858 13.3832 20.038 12.8947 19.9727 12.4147C19.9074 11.9347 19.7264 11.4773 19.445 11.0814C19.5381 10.8937 19.6102 10.6965 19.6664 10.5057C19.7899 10.0763 19.8476 9.60237 19.8476 9.14435C19.8476 8.68316 19.7899 8.21242 19.6664 7.78145C19.6034 7.55958 19.5174 7.3448 19.4098 7.14055C19.6808 6.52509 19.5814 5.83648 19.4049 5.31327C19.2242 4.79718 18.9598 4.31375 18.6223 3.88198C18.7089 3.63866 18.7442 3.38421 18.7442 3.14248C18.7373 2.63241 18.5975 2.13278 18.3384 1.6921C17.8027 0.758584 16.7394 0 15.2365 0H9.62308C8.65276 0 7.90697 0.127226 7.27184 0.3451C6.72567 0.543389 6.20379 0.802126 5.71611 1.11641L5.63913 1.16253C4.83079 1.65234 4.03688 2.13262 2.32237 2.31233C1.09382 2.44114 0 3.42555 0 4.76938V11.1307C0 12.484 1.09864 13.4096 2.17642 13.7006C3.53809 14.0696 4.70088 14.9522 5.59582 15.943C6.49398 16.9385 7.06174 17.9786 7.26222 18.5479C7.58139 19.4624 7.83319 20.997 7.94867 22.6685Z" fill="#AA0000"/>
</svg>
