<svg width="25" height="20" viewBox="0 0 25 20" fill="none" xmlns="http://www.w3.org/2000/svg">
<path id="Vector" fill-rule="evenodd" clip-rule="evenodd" d="M0 10C0 9.62119 0.164602 9.25789 0.457595 8.99003C0.750588 8.72217 1.14797 8.57169 1.56233 8.57169H19.6634L12.9548 2.44137C12.6614 2.17317 12.4966 1.80941 12.4966 1.43012C12.4966 1.05083 12.6614 0.687071 12.9548 0.418872C13.2482 0.150673 13.6461 0 14.0609 0C14.4758 0 14.8737 0.150673 15.1671 0.418872L24.541 8.98875C24.6865 9.12143 24.8019 9.27905 24.8807 9.45257C24.9595 9.6261 25 9.81213 25 10C25 10.1879 24.9595 10.3739 24.8807 10.5474C24.8019 10.721 24.6865 10.8786 24.541 11.0112L15.1671 19.5811C14.8737 19.8493 14.4758 20 14.0609 20C13.6461 20 13.2482 19.8493 12.9548 19.5811C12.6614 19.3129 12.4966 18.9492 12.4966 18.5699C12.4966 18.1906 12.6614 17.8268 12.9548 17.5586L19.6634 11.4283H1.56233C1.14797 11.4283 0.750588 11.2778 0.457595 11.01C0.164602 10.7421 0 10.3788 0 10Z" fill="#E7E1D5"/>
</svg>
